<svg xmlns="http://www.w3.org/2000/svg" viewBox="0 0 57.6847 45.2762">
  <defs>
    <style>
      .a {
        fill: #fff;
      }
    </style>
  </defs>
  <title>solsystem</title>
  <g>
    <path class="a" d="M40.3228,1.9813c2.7365-.2184,4.8169.3475,5.868,1.8029,3.0294,4.1946-3.626,14.1751-14.8652,22.2922S8.52,37.3733,5.49,33.1787c-1.0511-1.4554-.9341-3.6082.1335-6.1372C.6047,33.5632-1.3756,39.4553,1.0005,42.7454c4.1446,5.7387,19.97,1.3884,35.3461-9.7168S60.8285,8.2689,56.6839,2.53C54.3078-.76,48.0918-.7326,40.3228,1.9813Z"/>
    <path class="a" d="M37.8649,35.131a89.4745,89.4745,0,0,1-11.29,6.9732c.3352.0167.671.0313,1.0105.0313A21.007,21.007,0,0,0,47.8137,26.7772,88.6036,88.6036,0,0,1,37.8649,35.131Z"/>
    <path class="a" d="M27.5853.1234a21.0016,21.0016,0,0,0-17.71,32.2973,15.9549,15.9549,0,0,0,4.7662-.6768,50.0086,50.0086,0,0,0,15.1655-7.77A50.0032,50.0032,0,0,0,41.9512,12.0206a16.7769,16.7769,0,0,0,2.04-3.982A20.9444,20.9444,0,0,0,27.5853.1234ZM12.2845,30.5851a1.4163,1.4163,0,1,1,1.4163-1.4163A1.4162,1.4162,0,0,1,12.2845,30.5851Zm6.224-2.11a2.4182,2.4182,0,1,1,2.4183-2.4182A2.4182,2.4182,0,0,1,18.5085,28.475Z"/>
  </g>
</svg>
